<svg xmlns="http://www.w3.org/2000/svg" viewBox="0 0 512 512" width="512" height="512">
  <defs>
    <linearGradient id="gxGradient" x1="0%" y1="0%" x2="100%" y2="100%">
      <stop offset="0%" stop-color="#20D7FF"/>
      <stop offset="100%" stop-color="#00B8F0"/>
    </linearGradient>

    <filter id="shadow" x="-20%" y="-20%" width="140%" height="140%">
      <feDropShadow dx="0" dy="8" stdDeviation="10" flood-color="#000000" flood-opacity="0.25"/>
    </filter>
  </defs>

  <g filter="url(#shadow)">
    <!-- Base Hexagon -->
    <path
      d="
        M256 40
        Q270 40 282 48
        L430 133
        Q444 141 444 157
        L444 355
        Q444 371 430 379
        L282 464
        Q270 472 256 472
        Q242 472 230 464
        L82 379
        Q68 371 68 355
        L68 157
        Q68 141 82 133
        L230 48
        Q242 40 256 40
        Z"
      fill="#06173A"
    />

    <!-- Inner Border -->
    <path
      d="
        M256 62
        Q267 62 277 68
        L411 145
        Q422 151 422 164
        L422 348
        Q422 361 411 367
        L277 444
        Q267 450 256 450
        Q245 450 235 444
        L101 367
        Q90 361 90 348
        L90 164
        Q90 151 101 145
        L235 68
        Q245 62 256 62
        Z"
      fill="none"
      stroke="url(#gxGradient)"
      stroke-width="10"
      stroke-linejoin="round"
    />

    <!-- GX -->
    <text
      x="256"
      y="290"
      text-anchor="middle"
      font-family="Arial, Helvetica, sans-serif"
      font-size="120"
      font-weight="700"
      letter-spacing="4"
      fill="url(#gxGradient)">
      GX
    </text>
  </g>
</svg>